# xmcd
#
# Track frame offsets:
#	150
#	4099
#	96503
#	122789
#	136877
#	165436
#	183915
#	221380
#
# Disc length: 3242 seconds
#
# Revision: 1
# Processed by: cddbd v1.5.2PL0 Copyright (c) Steve Scherf et al.
# Submitted via: audiograbber 1.83.01
#
DISCID=640ca808
DTITLE=Grateful Dead - 72-11-19 Hofheinz Pavilion, Houston TX
DYEAR=1900
DGENRE=
TTITLE0=Nickelodeon Tuning
TTITLE1=Playing In The Band
TTITLE2=Casey Jones
TTITLE3=Promised Land
TTITLE4=Ramble On Rose
TTITLE5=El Paso
TTITLE6=Stella Blue
TTITLE7=Jack Straw
EXTD=
EXTT0=
EXTT1=
EXTT2=
EXTT3=
EXTT4=
EXTT5=
EXTT6=
EXTT7=
PLAYORDER=
